<svg width="16" height="16" viewBox="0 0 16 16" fill="none" xmlns="http://www.w3.org/2000/svg">
<path d="M7.99992 4.66667C8.36659 4.66667 8.66659 4.96667 8.66659 5.33333V8C8.66659 8.36667 8.36659 8.66667 7.99992 8.66667C7.63325 8.66667 7.33325 8.36667 7.33325 8V5.33333C7.33325 4.96667 7.63325 4.66667 7.99992 4.66667ZM7.99325 1.33333C4.31325 1.33333 1.33325 4.32 1.33325 8C1.33325 11.68 4.31325 14.6667 7.99325 14.6667C11.6799 14.6667 14.6666 11.68 14.6666 8C14.6666 4.32 11.6799 1.33333 7.99325 1.33333ZM7.99992 13.3333C5.05325 13.3333 2.66659 10.9467 2.66659 8C2.66659 5.05333 5.05325 2.66667 7.99992 2.66667C10.9466 2.66667 13.3333 5.05333 13.3333 8C13.3333 10.9467 10.9466 13.3333 7.99992 13.3333ZM8.66659 11.3333H7.33325V10H8.66659V11.3333Z" fill="#F5222D"/>
</svg>
