<svg width="49" height="48" viewBox="0 0 49 48" fill="none" xmlns="http://www.w3.org/2000/svg">
<g clip-path="url(#clip0_5_1040)">
<path d="M28.28 17.4L24.5 21.18L20.72 17.4C19.94 16.62 18.68 16.62 17.9 17.4C17.12 18.18 17.12 19.44 17.9 20.22L21.68 24L17.9 27.78C17.12 28.56 17.12 29.82 17.9 30.6C18.68 31.38 19.94 31.38 20.72 30.6L24.5 26.82L28.28 30.6C29.06 31.38 30.32 31.38 31.1 30.6C31.88 29.82 31.88 28.56 31.1 27.78L27.32 24L31.1 20.22C31.88 19.44 31.88 18.18 31.1 17.4C30.32 16.64 29.04 16.64 28.28 17.4ZM24.5 4C13.44 4 4.5 12.94 4.5 24C4.5 35.06 13.44 44 24.5 44C35.56 44 44.5 35.06 44.5 24C44.5 12.94 35.56 4 24.5 4ZM24.5 40C15.68 40 8.5 32.82 8.5 24C8.5 15.18 15.68 8 24.5 8C33.32 8 40.5 15.18 40.5 24C40.5 32.82 33.32 40 24.5 40Z" fill="#F5222D"/>
</g>
<defs>
<clipPath id="clip0_5_1040">
<rect width="48" height="48" fill="white" transform="translate(0.5)"/>
</clipPath>
</defs>
</svg>
