<svg width="24" height="24" viewBox="0 0 24 24" fill="none" xmlns="http://www.w3.org/2000/svg">
    <path d="M9 16.5C9 16.8978 8.84196 17.2794 8.56066 17.5607C8.27935 17.842 7.89782 18 7.5 18C7.10218 18 6.72064 17.842 6.43934 17.5607C6.15804 17.2794 6 16.8978 6 16.5C6 16.1022 6.15804 15.7206 6.43934 15.4393C6.72064 15.158 7.10218 15 7.5 15C7.89782 15 8.27935 15.158 8.56066 15.4393C8.84196 15.7206 9 16.1022 9 16.5ZM18 11.25L17.25 11.25L17.25 12.75C17.25 12.9489 17.171 13.1397 17.0303 13.2803C16.8897 13.421 16.6989 13.5 16.5 13.5L15 13.5L15 15C14.9997 16.2599 14.6028 17.4877 13.8656 18.5094C13.1284 19.5311 12.0882 20.2948 10.8927 20.6923C9.69709 21.0897 8.40674 21.1007 7.20457 20.7237C6.0024 20.3467 4.94941 19.6008 4.1949 18.5918C3.44039 17.5828 3.02264 16.3619 3.00089 15.1022C2.97915 13.8425 3.3545 12.6079 4.07373 11.5734C4.79296 10.539 5.81958 9.75721 7.00802 9.33892C8.19646 8.92064 9.48642 8.88708 10.695 9.243L16.5 3.438C16.7815 3.15723 17.1629 2.99969 17.5605 3L19.5 3C19.8978 3 20.2794 3.15804 20.5607 3.43934C20.842 3.72065 21 4.10218 21 4.5L21 7.5C21 7.89783 20.842 8.27936 20.5607 8.56066C20.2794 8.84197 19.8978 9 19.5 9L18.75 9L18.75 10.5C18.75 10.6989 18.671 10.8897 18.5303 11.0303C18.3897 11.171 18.1989 11.25 18 11.25ZM9 10.5C8.10998 10.5 7.23996 10.7639 6.49993 11.2584C5.75991 11.7529 5.18314 12.4557 4.84254 13.2779C4.50195 14.1002 4.41283 15.005 4.58647 15.8779C4.7601 16.7508 5.18868 17.5526 5.81802 18.182C6.44736 18.8113 7.24918 19.2399 8.12209 19.4135C8.99501 19.5872 9.89981 19.4981 10.7221 19.1575C11.5443 18.8169 12.2471 18.2401 12.7416 17.5001C13.2361 16.76 13.5 15.89 13.5 15L13.5 12.75C13.5 12.5511 13.579 12.3603 13.7197 12.2197C13.8603 12.079 14.0511 12 14.25 12L15.75 12L15.75 10.5C15.75 10.3011 15.829 10.1103 15.9697 9.96967C16.1103 9.82902 16.3011 9.75 16.5 9.75L17.25 9.75L17.25 8.25C17.25 8.05109 17.329 7.86032 17.4697 7.71967C17.6103 7.57902 17.8011 7.5 18 7.5L19.5 7.5L19.5 4.5L17.5605 4.5L11.427 10.6335C11.3243 10.7363 11.1939 10.8071 11.0517 10.8372C10.9095 10.8673 10.7616 10.8554 10.626 10.803C10.122 10.608 9.576 10.5 9 10.5Z" fill="#525252"/>
    </svg>
    