<svg width="49" height="48" viewBox="0 0 49 48" fill="none" xmlns="http://www.w3.org/2000/svg">
<g clip-path="url(#clip0_5_1034)">
<path d="M24.5 4C13.46 4 4.5 12.96 4.5 24C4.5 35.04 13.46 44 24.5 44C35.54 44 44.5 35.04 44.5 24C44.5 12.96 35.54 4 24.5 4ZM24.5 40C15.68 40 8.5 32.82 8.5 24C8.5 15.18 15.68 8 24.5 8C33.32 8 40.5 15.18 40.5 24C40.5 32.82 33.32 40 24.5 40ZM32.26 16.58L20.5 28.34L16.74 24.58C15.96 23.8 14.7 23.8 13.92 24.58C13.14 25.36 13.14 26.62 13.92 27.4L19.1 32.58C19.88 33.36 21.14 33.36 21.92 32.58L35.1 19.4C35.88 18.62 35.88 17.36 35.1 16.58C34.32 15.8 33.04 15.8 32.26 16.58Z" fill="#08979C"/>
</g>
<defs>
<clipPath id="clip0_5_1034">
<rect width="48" height="48" fill="white" transform="translate(0.5)"/>
</clipPath>
</defs>
</svg>
